# xmcd
#
# Track frame offsets:
#  150
#  29063
#  53551
#  71514
#  97314
#  102227
#  135827
#  154952
#  188515
#  207903
#
# Disc length: 3021 seconds
#
# Revision: 1
# Processed by: cddbd v1.5.1PL0 Copyright (c) Steve Scherf et al.
# Submitted via: Collectorz.com Music Collector 6.9
#
DISCID=870bcb0a
DTITLE=Todd Snider - Elliston Place, Nashville - 10-11-1997 - Disc 1
DYEAR=1997
DGENRE=
TTITLE0=Easy Money
TTITLE1=Trouble
TTITLE2=Hey Hey
TTITLE3=Hard Enough
TTITLE4=Crowd Sings Happy Birthday To Todd
TTITLE5=I Shall Be Be Free, No 10 - Talking Seattle Grunge Rock Blues
TTITLE6=Hey Hey My My
TTITLE7=Once He Finds Us
TTITLE8=My Generation, Part 2
TTITLE9=Late Last Night
EXTD=
EXTT0=
EXTT1=
EXTT2=
EXTT3=
EXTT4=
EXTT5=
EXTT6=
EXTT7=
EXTT8=
EXTT9=
PLAYORDER=
